<?xml version="1.0" standalone="no"?><!DOCTYPE svg PUBLIC "-//W3C//DTD SVG 1.1//EN" "http://www.w3.org/Graphics/SVG/1.1/DTD/svg11.dtd"><svg class="icon" width="200px" height="200.00px" viewBox="0 0 1024 1024" version="1.1" xmlns="http://www.w3.org/2000/svg"><path d="M165.327238 794.672762V357.327238H858.697143V512h58.660571V202.654476c0-17.65181-14.336-31.98781-32.01219-31.987809H138.703238c-17.67619 0-32.01219 14.336-32.01219 32.01219v618.642286c0 17.67619 14.336 32.01219 32.01219 32.01219H597.333333v-58.660571H165.327238zM858.697143 298.666667H165.302857V229.327238H858.697143v69.339429z"  /><path d="M416.01219 416.01219H224.01219v58.660572h191.97562v-58.684952zM740.742095 492.641524l-62.025143 62.025143h99.961905a149.333333 149.333333 0 1 1 0 298.666666h-117.345524v-58.660571h117.345524a90.672762 90.672762 0 1 0 0-181.345524h-100.522667l62.585905 62.585905-41.472 41.472-133.12-133.12 133.12-133.12 41.472 41.496381z"  /></svg>